<svg xmlns="http://www.w3.org/2000/svg" viewBox="0 0 1200 900" role="img">
<defs>
  <radialGradient id="body" cx="30%" cy="22%" r="78%">
    <stop offset="0" stop-color="#ffffff"/>
    <stop offset=".36" stop-color="#eef1f4"/>
    <stop offset=".72" stop-color="#c9ced4"/>
    <stop offset="1" stop-color="#9aa3ad"/>
  </radialGradient>
  <linearGradient id="gold" x1="0" y1="0" x2="1" y2="1">
    <stop offset="0" stop-color="#fff0a8"/>
    <stop offset=".35" stop-color="#d6ae45"/>
    <stop offset=".7" stop-color="#a97816"/>
    <stop offset="1" stop-color="#f3d77d"/>
  </linearGradient>
  <linearGradient id="platform" x1="0" y1="0" x2="0" y2="1">
    <stop offset="0" stop-color="#ffffff"/>
    <stop offset="1" stop-color="#d7dce1"/>
  </linearGradient>
  <filter id="shadow" x="-40%" y="-40%" width="180%" height="180%">
    <feDropShadow dx="0" dy="24" stdDeviation="22" flood-color="#58616a" flood-opacity=".28"/>
  </filter>
</defs>
<rect width="100%" height="100%" fill="none"/>
<ellipse cx="600" cy="770" rx="390" ry="52" fill="#7d8791" opacity=".16"/>
<ellipse cx="600" cy="690" rx="390" ry="105" fill="url(#platform)" stroke="#c6ccd2" stroke-width="3" filter="url(#shadow)"/>
<g filter="url(#shadow)">
  <rect x="340" y="520" width="150" height="140" rx="12" fill="#eef1f4"/>
  <rect x="490" y="430" width="150" height="230" rx="12" fill="#e5e9ed"/>
  <rect x="640" y="330" width="150" height="330" rx="12" fill="#dbe0e5"/>
  <rect x="790" y="215" width="150" height="445" rx="12" fill="#d1d7dd"/>
</g>
<polygon points="865,95 895,160 965,168 912,215 928,286 865,248 802,286 818,215 765,168 835,160" fill="url(#gold)" filter="url(#shadow)"/>
<circle cx="405" cy="410" r="64" fill="url(#body)" filter="url(#shadow)"/>
<rect x="365" y="462" width="92" height="155" rx="44" fill="url(#body)" transform="rotate(-10 411 540)" filter="url(#shadow)"/>
<rect x="435" y="470" width="120" height="36" rx="18" fill="url(#body)" transform="rotate(-18 435 470)"/>
<rect x="390" y="585" width="120" height="38" rx="19" fill="url(#body)" transform="rotate(-25 390 585)"/>
<rect x="440" y="520" width="118" height="38" rx="19" fill="url(#body)" transform="rotate(22 440 520)"/>
</svg>