<svg xmlns="http://www.w3.org/2000/svg" viewBox="0 0 1200 900" role="img">
<defs>
  <radialGradient id="body" cx="30%" cy="22%" r="78%">
    <stop offset="0" stop-color="#ffffff"/>
    <stop offset=".36" stop-color="#eef1f4"/>
    <stop offset=".72" stop-color="#c9ced4"/>
    <stop offset="1" stop-color="#9aa3ad"/>
  </radialGradient>
  <linearGradient id="gold" x1="0" y1="0" x2="1" y2="1">
    <stop offset="0" stop-color="#fff0a8"/>
    <stop offset=".35" stop-color="#d6ae45"/>
    <stop offset=".7" stop-color="#a97816"/>
    <stop offset="1" stop-color="#f3d77d"/>
  </linearGradient>
  <linearGradient id="platform" x1="0" y1="0" x2="0" y2="1">
    <stop offset="0" stop-color="#ffffff"/>
    <stop offset="1" stop-color="#d7dce1"/>
  </linearGradient>
  <filter id="shadow" x="-40%" y="-40%" width="180%" height="180%">
    <feDropShadow dx="0" dy="24" stdDeviation="22" flood-color="#58616a" flood-opacity=".28"/>
  </filter>
</defs>
<rect width="100%" height="100%" fill="none"/>
<ellipse cx="600" cy="770" rx="390" ry="52" fill="#7d8791" opacity=".16"/>
<ellipse cx="600" cy="690" rx="390" ry="105" fill="url(#platform)" stroke="#c6ccd2" stroke-width="3" filter="url(#shadow)"/>
<circle cx="600" cy="390" r="270" fill="#ffffff" fill-opacity=".18" stroke="#d8dde2" stroke-width="8"/>
<ellipse cx="600" cy="390" rx="245" ry="245" fill="url(#body)" opacity=".08"/>
<circle cx="570" cy="390" r="68" fill="url(#body)" filter="url(#shadow)"/>
<rect x="510" y="452" width="120" height="180" rx="58" fill="url(#body)" transform="rotate(8 570 542)" filter="url(#shadow)"/>
<rect x="455" y="560" width="170" height="42" rx="21" fill="url(#body)" transform="rotate(8 455 560)"/>
<rect x="560" y="552" width="165" height="42" rx="21" fill="url(#body)" transform="rotate(-8 560 552)"/>
<rect x="505" y="475" width="160" height="40" rx="20" fill="url(#body)" transform="rotate(26 505 475)"/>
<rect x="475" y="500" width="160" height="40" rx="20" fill="url(#body)" transform="rotate(-20 475 500)"/>
</svg>