<svg xmlns="http://www.w3.org/2000/svg" viewBox="0 0 1200 900" role="img">
<defs>
  <radialGradient id="body" cx="30%" cy="22%" r="78%">
    <stop offset="0" stop-color="#ffffff"/>
    <stop offset=".36" stop-color="#eef1f4"/>
    <stop offset=".72" stop-color="#c9ced4"/>
    <stop offset="1" stop-color="#9aa3ad"/>
  </radialGradient>
  <linearGradient id="gold" x1="0" y1="0" x2="1" y2="1">
    <stop offset="0" stop-color="#fff0a8"/>
    <stop offset=".35" stop-color="#d6ae45"/>
    <stop offset=".7" stop-color="#a97816"/>
    <stop offset="1" stop-color="#f3d77d"/>
  </linearGradient>
  <linearGradient id="platform" x1="0" y1="0" x2="0" y2="1">
    <stop offset="0" stop-color="#ffffff"/>
    <stop offset="1" stop-color="#d7dce1"/>
  </linearGradient>
  <filter id="shadow" x="-40%" y="-40%" width="180%" height="180%">
    <feDropShadow dx="0" dy="24" stdDeviation="22" flood-color="#58616a" flood-opacity=".28"/>
  </filter>
</defs>
<rect width="100%" height="100%" fill="none"/>
<ellipse cx="600" cy="770" rx="390" ry="52" fill="#7d8791" opacity=".16"/>
<ellipse cx="600" cy="690" rx="390" ry="105" fill="url(#platform)" stroke="#c6ccd2" stroke-width="3" filter="url(#shadow)"/>
<rect x="470" y="210" width="330" height="370" rx="34" fill="#fff" stroke="#d0a63a" stroke-width="18" filter="url(#shadow)"/>
<rect x="540" y="160" width="190" height="80" rx="18" fill="url(#gold)"/>
<circle cx="635" cy="160" r="30" fill="none" stroke="#b58219" stroke-width="15"/>
<circle cx="340" cy="300" r="72" fill="url(#body)" filter="url(#shadow)"/>
<rect x="285" y="360" width="110" height="210" rx="52" fill="url(#body)" filter="url(#shadow)"/>
<rect x="320" y="390" width="130" height="95" rx="18" fill="#59626c" transform="rotate(-8 320 390)"/>
<g stroke="#c89d2d" stroke-width="18" fill="none" stroke-linecap="round" stroke-linejoin="round">
  <path d="M525 325 l25 25 l45 -55"/><path d="M620 330 h95"/>
  <path d="M525 410 l25 25 l45 -55"/><path d="M620 415 h95"/>
  <path d="M525 495 l25 25 l45 -55"/><path d="M620 500 h95"/>
</g>
</svg>