<svg xmlns="http://www.w3.org/2000/svg" viewBox="0 0 1200 900" role="img">
<defs>
  <radialGradient id="body" cx="30%" cy="22%" r="78%">
    <stop offset="0" stop-color="#ffffff"/>
    <stop offset=".36" stop-color="#eef1f4"/>
    <stop offset=".72" stop-color="#c9ced4"/>
    <stop offset="1" stop-color="#9aa3ad"/>
  </radialGradient>
  <linearGradient id="gold" x1="0" y1="0" x2="1" y2="1">
    <stop offset="0" stop-color="#fff0a8"/>
    <stop offset=".35" stop-color="#d6ae45"/>
    <stop offset=".7" stop-color="#a97816"/>
    <stop offset="1" stop-color="#f3d77d"/>
  </linearGradient>
  <linearGradient id="platform" x1="0" y1="0" x2="0" y2="1">
    <stop offset="0" stop-color="#ffffff"/>
    <stop offset="1" stop-color="#d7dce1"/>
  </linearGradient>
  <filter id="shadow" x="-40%" y="-40%" width="180%" height="180%">
    <feDropShadow dx="0" dy="24" stdDeviation="22" flood-color="#58616a" flood-opacity=".28"/>
  </filter>
</defs>
<rect width="100%" height="100%" fill="none"/>
<ellipse cx="600" cy="770" rx="390" ry="52" fill="#7d8791" opacity=".16"/>
<ellipse cx="600" cy="690" rx="390" ry="105" fill="url(#platform)" stroke="#c6ccd2" stroke-width="3" filter="url(#shadow)"/>
<path d="M600 160 C460 160 360 250 350 385 C460 315 540 325 600 385 C660 325 740 315 850 385 C840 250 740 160 600 160Z" fill="url(#gold)" filter="url(#shadow)"/>
<rect x="585" y="375" width="30" height="245" rx="15" fill="#a87918"/>
<path d="M600 620 q0 70 65 65" fill="none" stroke="#a87918" stroke-width="28" stroke-linecap="round"/>
<circle cx="600" cy="430" r="64" fill="url(#body)" filter="url(#shadow)"/>
<rect x="550" y="485" width="100" height="170" rx="48" fill="url(#body)" filter="url(#shadow)"/>
<rect x="505" y="520" width="120" height="38" rx="19" fill="url(#body)" transform="rotate(20 505 520)"/>
<rect x="595" y="520" width="120" height="38" rx="19" fill="url(#body)" transform="rotate(-20 595 520)"/>
</svg>