<svg xmlns="http://www.w3.org/2000/svg" viewBox="0 0 1200 900" role="img">
<defs>
  <radialGradient id="body" cx="30%" cy="22%" r="78%">
    <stop offset="0" stop-color="#ffffff"/>
    <stop offset=".36" stop-color="#eef1f4"/>
    <stop offset=".72" stop-color="#c9ced4"/>
    <stop offset="1" stop-color="#9aa3ad"/>
  </radialGradient>
  <linearGradient id="gold" x1="0" y1="0" x2="1" y2="1">
    <stop offset="0" stop-color="#fff0a8"/>
    <stop offset=".35" stop-color="#d6ae45"/>
    <stop offset=".7" stop-color="#a97816"/>
    <stop offset="1" stop-color="#f3d77d"/>
  </linearGradient>
  <linearGradient id="platform" x1="0" y1="0" x2="0" y2="1">
    <stop offset="0" stop-color="#ffffff"/>
    <stop offset="1" stop-color="#d7dce1"/>
  </linearGradient>
  <filter id="shadow" x="-40%" y="-40%" width="180%" height="180%">
    <feDropShadow dx="0" dy="24" stdDeviation="22" flood-color="#58616a" flood-opacity=".28"/>
  </filter>
</defs>
<rect width="100%" height="100%" fill="none"/>
<ellipse cx="600" cy="770" rx="390" ry="52" fill="#7d8791" opacity=".16"/>
<ellipse cx="600" cy="690" rx="390" ry="105" fill="url(#platform)" stroke="#c6ccd2" stroke-width="3" filter="url(#shadow)"/>
<circle cx="760" cy="260" r="74" fill="url(#body)" filter="url(#shadow)"/>
<rect x="700" y="330" width="125" height="235" rx="58" fill="url(#body)" transform="rotate(8 762 447)" filter="url(#shadow)"/>
<rect x="585" y="390" width="190" height="42" rx="21" fill="url(#body)" transform="rotate(-20 585 390)"/>
<rect x="760" y="382" width="170" height="42" rx="21" fill="url(#body)" transform="rotate(18 760 382)"/>
<circle cx="420" cy="445" r="64" fill="url(#body)" filter="url(#shadow)"/>
<rect x="365" y="500" width="110" height="165" rx="52" fill="url(#body)" transform="rotate(-12 420 580)" filter="url(#shadow)"/>
<rect x="430" y="515" width="190" height="40" rx="20" fill="url(#body)" transform="rotate(-18 430 515)"/>
<rect x="345" y="620" width="150" height="38" rx="19" fill="url(#body)" transform="rotate(10 345 620)"/>
</svg>